<svg xmlns="http://www.w3.org/2000/svg" width="32" height="32" viewBox="0 0 32 32"><defs><style>.prefix__cls-2{fill:red;stroke:red;stroke-width:.7px}</style></defs><g id="prefix__adress" transform="translate(-5219 5693)"><path id="prefix__Rectangle_160" d="M0 0h32v32H0z" data-name="Rectangle 160" transform="translate(5219 -5693)" fill="none"/><g id="prefix__feedback" transform="translate(5224 -5708.333)"><g id="prefix__Group_1435" data-name="Group 1435" transform="translate(0 21.333)"><g id="prefix__Group_1434" data-name="Group 1434"><path id="prefix__Path_24322" d="M107.051 128.954h8.469a.488.488 0 000-.955h-8.469a.488.488 0 000 .955z" class="prefix__cls-2" data-name="Path 24322" transform="translate(-101.893 -123.226)"/><path id="prefix__Path_24323" d="M112.871 256h-5.727a.477.477 0 100 .955h5.727a.477.477 0 100-.955z" class="prefix__cls-2" data-name="Path 24323" transform="translate(-101.893 -245.5)"/><path id="prefix__Path_24332" d="M114.095 255.814h-6.932a.486.486 0 100 .955h6.932a.486.486 0 100-.955z" class="prefix__cls-2" data-name="Path 24332" transform="translate(-101.883 -248.102)"/><path id="prefix__Path_24324" d="M21.082 1.909c-.028 0-.054.007-.082.008v-.008A1.911 1.911 0 0019.091 0H1.909A1.911 1.911 0 000 1.909v18.614a.477.477 0 00.295.441.472.472 0 00.183.036.477.477 0 00.337-.14l4.633-4.633h13.643A1.911 1.911 0 0021 14.318V6.402l1.374-1.374a1.827 1.827 0 00-1.292-3.119zm-1.037 12.409a.955.955 0 01-.955.955H5.25a.477.477 0 00-.337.14L.955 19.367V1.909A.955.955 0 011.91.954h17.181a.955.955 0 01.955.955v.326a1.8 1.8 0 00-.255.209L14.6 7.636c-.216.276-.547.413-.766.955l-.458 2.293a.477.477 0 00.468.571.487.487 0 00.093-.009l2.383-.479a.474.474 0 00.244-.131l3.482-3.481zm-4.054-4.258l-1.541.307.309-1.544 4.332-4.333 1.234 1.234zM21.7 4.353l-.7.7-1.234-1.234.7-.7A.873.873 0 0121.7 4.353z" data-name="Path 24324" fill="#323232" stroke="#323232" stroke-width=".7"/></g></g></g></g></svg>